<?xml version="1.0" encoding="utf-8"?>
<svg version="1.1" xmlns:xlink="http://www.w3.org/1999/xlink" width="19px" height="21px" xmlns="http://www.w3.org/2000/svg">
  <g transform="matrix(1 0 0 1 -631 -1596 )">
    <path d="M 14.2994791666667 0.796875000000001  L 18.1588541666667 4.453125  C 18.3897569444444 4.671875  18.5876736111111 4.96875  18.7526041666667 5.34375  C 18.9175347222222 5.71875  19 6.0625  19 6.375  L 19 19.875  C 19 20.1875  18.8845486111111 20.453125  18.6536458333333 20.671875  C 18.4227430555556 20.890625  18.1423611111111 21  17.8125 21  L 1.1875 21  C 0.857638888888889 21  0.577256944444445 20.890625  0.346354166666667 20.671875  C 0.115451388888889 20.453125  0 20.1875  0 19.875  L 0 1.125  C 0 0.812499999999999  0.115451388888889 0.546874999999999  0.346354166666667 0.328125  C 0.577256944444445 0.109375000000001  0.857638888888889 0  1.1875 0  L 12.2708333333333 0  C 12.6006944444444 0  12.9635416666667 0.0781250000000009  13.359375 0.234375  C 13.7552083333333 0.390625  14.0685763888889 0.578124999999999  14.2994791666667 0.796875000000001  Z M 13.173828125 1.8515625  C 13.0748697916667 1.7578125  12.9058159722222 1.671875  12.6666666666667 1.59375  L 12.6666666666667 6  L 17.3177083333333 6  C 17.2352430555556 5.7734375  17.14453125 5.61328125  17.0455729166667 5.51953125  L 13.173828125 1.8515625  Z M 1.58333333333333 19.5  L 17.4166666666667 19.5  L 17.4166666666667 7.5  L 12.2708333333333 7.5  C 11.9409722222222 7.5  11.6605902777778 7.390625  11.4296875 7.171875  C 11.1987847222222 6.953125  11.0833333333333 6.6875  11.0833333333333 6.375  L 11.0833333333333 1.5  L 1.58333333333333 1.5  L 1.58333333333333 19.5  Z M 9.25260416666667 9.76171875  C 9.70616319444445 11.04296875  10.3081597222222 11.97265625  11.05859375 12.55078125  C 11.3307291666667 12.75390625  11.6770833333333 12.97265625  12.09765625 13.20703125  C 12.5842013888889 13.15234375  13.0666232638889 13.125  13.544921875 13.125  C 14.7571614583333 13.125  15.4869791666667 13.31640625  15.734375 13.69921875  C 15.8663194444444 13.87109375  15.8745659722222 14.07421875  15.7591145833333 14.30859375  C 15.7591145833333 14.31640625  15.7549913194444 14.32421875  15.7467447916667 14.33203125  L 15.7220052083333 14.35546875  L 15.7220052083333 14.3671875  C 15.6725260416667 14.6640625  15.3797743055556 14.8125  14.84375 14.8125  C 14.4479166666667 14.8125  13.9737413194444 14.734375  13.4212239583333 14.578125  C 12.8687065972222 14.421875  12.3326822916667 14.21484375  11.8131510416667 13.95703125  C 9.99066840277778 14.14453125  8.37434895833333 14.46875  6.96419270833333 14.9296875  C 5.70247395833333 16.9765625  4.70464409722222 18  3.970703125 18  C 3.84700520833333 18  3.73155381944444 17.97265625  3.62434895833333 17.91796875  L 3.32747395833333 17.77734375  C 3.31922743055556 17.76953125  3.29448784722222 17.75  3.25325520833333 17.71875  C 3.17078993055556 17.640625  3.14605034722222 17.5  3.17903645833333 17.296875  C 3.25325520833333 16.984375  3.48415798611111 16.626953125  3.87174479166667 16.224609375  C 4.25933159722222 15.822265625  4.80360243055556 15.4453125  5.50455729166667 15.09375  C 5.62000868055556 15.0234375  5.71484375 15.046875  5.7890625 15.1640625  C 5.80555555555556 15.1796875  5.81380208333333 15.1953125  5.81380208333333 15.2109375  C 6.24262152777778 14.546875  6.68381076388889 13.77734375  7.13736979166667 12.90234375  C 7.69813368055556 11.83984375  8.126953125 10.81640625  8.423828125 9.83203125  C 8.22591145833333 9.19140625  8.10015190972222 8.568359375  8.04654947916667 7.962890625  C 7.99294704861111 7.357421875  8.01974826388889 6.859375  8.126953125 6.46875  C 8.21766493055556 6.15625  8.39084201388889 6  8.646484375 6  L 8.90625 6  L 8.91861979166667 6  C 9.10828993055556 6  9.25260416666667 6.05859375  9.3515625 6.17578125  C 9.5 6.33984375  9.537109375 6.60546875  9.462890625 6.97265625  C 9.44639756944444 7.01953125  9.42990451388889 7.05078125  9.41341145833333 7.06640625  C 9.42165798611111 7.08984375  9.42578125 7.12109375  9.42578125 7.16015625  L 9.42578125 7.51171875  C 9.40928819444444 8.47265625  9.3515625 9.22265625  9.25260416666667 9.76171875  Z M 4.5458984375 16.5  C 4.24490017361111 16.84375  4.04079861111111 17.1328125  3.93359375 17.3671875  C 4.36241319444444 17.1796875  4.92730034722222 16.5625  5.62825520833333 15.515625  C 5.20768229166667 15.828125  4.84689670138889 16.15625  4.5458984375 16.5  Z M 8.85677083333333 6.5625  L 8.85677083333333 6.5859375  C 8.73307291666667 6.9140625  8.72482638888889 7.4296875  8.83203125 8.1328125  C 8.84027777777778 8.078125  8.869140625 7.90625  8.91861979166667 7.6171875  C 8.91861979166667 7.59375  8.94748263888889 7.42578125  9.00520833333333 7.11328125  C 9.01345486111111 7.08203125  9.02994791666667 7.05078125  9.0546875 7.01953125  C 9.04644097222222 7.01171875  9.04231770833333 7.00390625  9.04231770833333 6.99609375  C 9.03407118055556 6.98046875  9.02994791666667 6.96875  9.02994791666667 6.9609375  C 9.02170138888889 6.7890625  8.96809895833333 6.6484375  8.869140625 6.5390625  C 8.869140625 6.546875  8.86501736111111 6.5546875  8.85677083333333 6.5625  Z M 7.87955729166667 13.359375  C 7.63216145833333 13.796875  7.44661458333333 14.12109375  7.32291666666667 14.33203125  C 8.43619791666667 13.91015625  9.60720486111111 13.59375  10.8359375 13.3828125  C 10.8194444444444 13.375  10.7658420138889 13.337890625  10.6751302083333 13.271484375  C 10.5844184027778 13.205078125  10.5184461805556 13.15234375  10.4772135416667 13.11328125  C 9.85047743055556 12.58984375  9.32682291666667 11.90234375  8.90625 11.05078125  C 8.68359375 11.72265625  8.34136284722222 12.4921875  7.87955729166667 13.359375  Z M 15.3385416666667 14.1796875  C 15.3385416666667 14.171875  15.3302951388889 14.16015625  15.3138020833333 14.14453125  C 15.1158854166667 13.95703125  14.5386284722222 13.86328125  13.58203125 13.86328125  C 14.2087673611111 14.08203125  14.7200520833333 14.19140625  15.1158854166667 14.19140625  C 15.2313368055556 14.19140625  15.3055555555556 14.1875  15.3385416666667 14.1796875  Z " fill-rule="nonzero" fill="#367fa9" stroke="none" transform="matrix(1 0 0 1 631 1596 )" />
  </g>
</svg>