<?xml version="1.0" encoding="utf-8"?>
<svg version="1.1" xmlns:xlink="http://www.w3.org/1999/xlink" width="25px" height="21px" xmlns="http://www.w3.org/2000/svg">
  <g transform="matrix(1 0 0 1 -287 -1331 )">
    <path d="M 5.76923076923077 15.75  L 5.76923076923077 19  L 19.2307692307692 19  L 19.2307692307692 15.75  L 5.76923076923077 15.75  Z M 5.76923076923077 1.75  L 5.76923076923077 10.5  L 19.2307692307692 10.5  L 19.2307692307692 5.25  L 16.8269230769231 5.25  C 16.4262820512821 5.25  16.0857371794872 5.12239583333333  15.8052884615385 4.8671875  C 15.5248397435897 4.61197916666667  15.3846153846154 4.30208333333333  15.3846153846154 3.9375  L 15.3846153846154 1.75  L 5.76923076923077 1.75  Z M 22.7914663461538 11.990234375  C 22.9817708333333 11.8170572916667  23.0769230769231 11.6119791666667  23.0769230769231 11.375  C 23.0769230769231 11.1380208333333  22.9817708333333 10.9329427083333  22.7914663461538 10.759765625  C 22.6011618589744 10.5865885416667  22.3758012820513 10.5  22.1153846153846 10.5  C 21.8549679487179 10.5  21.6296073717949 10.5865885416667  21.4393028846154 10.759765625  C 21.2489983974359 10.9329427083333  21.1538461538462 11.1380208333333  21.1538461538462 11.375  C 21.1538461538462 11.6119791666667  21.2489983974359 11.8170572916667  21.4393028846154 11.990234375  C 21.6296073717949 12.1634114583333  21.8549679487179 12.25  22.1153846153846 12.25  C 22.3758012820513 12.25  22.6011618589744 12.1634114583333  22.7914663461538 11.990234375  Z M 24.1511418269231 9.5224609375  C 24.717047275641 10.0374348958333  25 10.6549479166667  25 11.375  L 25 17.0625  C 25 17.1809895833333  24.9524238782051 17.2835286458333  24.8572716346154 17.3701171875  C 24.7621193910256 17.4567057291667  24.6494391025641 17.5  24.5192307692308 17.5  L 21.1538461538462 17.5  L 21.1538461538462 19.6875  C 21.1538461538462 20.0520833333333  21.0136217948718 20.3619791666667  20.7331730769231 20.6171875  C 20.4527243589744 20.8723958333333  20.1121794871795 21  19.7115384615385 21  L 5.28846153846154 21  C 4.88782051282051 21  4.54727564102564 20.8723958333333  4.26682692307692 20.6171875  C 3.98637820512821 20.3619791666667  3.84615384615385 20.0520833333333  3.84615384615385 19.6875  L 3.84615384615385 17.5  L 0.480769230769231 17.5  C 0.350560897435897 17.5  0.237880608974359 17.4567057291667  0.142728365384615 17.3701171875  C 0.0475761217948718 17.2835286458333  0 17.1809895833333  0 17.0625  L 0 11.375  C 0 10.6549479166667  0.282952724358974 10.0374348958333  0.848858173076923 9.5224609375  C 1.41476362179487 9.00748697916667  2.09334935897436 8.75  2.88461538461538 8.75  L 3.84615384615385 8.75  L 3.84615384615385 1.3125  C 3.84615384615385 0.947916666666666  3.98637820512821 0.63802083333333  4.26682692307692 0.382812499999999  C 4.54727564102564 0.127604166666666  4.88782051282051 0  5.28846153846154 0  L 15.3846153846154 0  C 15.7852564102564 0  16.2259615384615 0.0911458333333313  16.7067307692308 0.273437500000001  C 17.1875 0.455729166666666  17.568108974359 0.674479166666665  17.8485576923077 0.929687500000001  L 20.1322115384615 3.0078125  C 20.4126602564103 3.26302083333333  20.6530448717949 3.609375  20.8533653846154 4.046875  C 21.0536858974359 4.484375  21.1538461538462 4.88541666666667  21.1538461538462 5.25  L 21.1538461538462 8.75  L 22.1153846153846 8.75  C 22.9066506410256 8.75  23.5852363782051 9.00748697916667  24.1511418269231 9.5224609375  Z " fill-rule="nonzero" fill="#367fa9" stroke="none" transform="matrix(1 0 0 1 287 1331 )" />
  </g>
</svg>