<?xml version="1.0" encoding="utf-8"?>
<svg version="1.1" xmlns:xlink="http://www.w3.org/1999/xlink" width="19px" height="20px" xmlns="http://www.w3.org/2000/svg">
  <g transform="matrix(1 0 0 1 -450 -1596 )">
    <path d="M 14.2994791666667 0.758928571428572  L 18.1588541666667 4.24107142857143  C 18.3897569444444 4.44940476190476  18.5876736111111 4.73214285714286  18.7526041666667 5.08928571428571  C 18.9175347222222 5.44642857142857  19 5.77380952380952  19 6.07142857142857  L 19 18.9285714285714  C 19 19.2261904761905  18.8845486111111 19.4791666666667  18.6536458333333 19.6875  C 18.4227430555556 19.8958333333333  18.1423611111111 20  17.8125 20  L 1.1875 20  C 0.857638888888889 20  0.577256944444445 19.8958333333333  0.346354166666667 19.6875  C 0.115451388888889 19.4791666666667  0 19.2261904761905  0 18.9285714285714  L 0 1.07142857142857  C 0 0.773809523809523  0.115451388888889 0.520833333333333  0.346354166666667 0.3125  C 0.577256944444445 0.104166666666667  0.857638888888889 0  1.1875 0  L 12.2708333333333 0  C 12.6006944444444 0  12.9635416666667 0.0744047619047628  13.359375 0.223214285714286  C 13.7552083333333 0.372023809523809  14.0685763888889 0.550595238095237  14.2994791666667 0.758928571428572  Z M 13.173828125 1.76339285714286  C 13.0748697916667 1.67410714285714  12.9058159722222 1.5922619047619  12.6666666666667 1.51785714285714  L 12.6666666666667 5.71428571428571  L 17.3177083333333 5.71428571428571  C 17.2352430555556 5.4985119047619  17.14453125 5.34598214285714  17.0455729166667 5.25669642857143  L 13.173828125 1.76339285714286  Z M 1.58333333333333 18.5714285714286  L 17.4166666666667 18.5714285714286  L 17.4166666666667 7.14285714285714  L 12.2708333333333 7.14285714285714  C 11.9409722222222 7.14285714285714  11.6605902777778 7.03869047619047  11.4296875 6.83035714285714  C 11.1987847222222 6.62202380952381  11.0833333333333 6.36904761904762  11.0833333333333 6.07142857142857  L 11.0833333333333 1.42857142857143  L 1.58333333333333 1.42857142857143  L 1.58333333333333 18.5714285714286  Z M 6.59309895833333 8.57142857142857  L 2.88216145833333 8.57142857142857  L 2.88216145833333 9.765625  L 3.748046875 9.765625  L 5.77669270833333 17.1428571428571  L 7.74348958333333 17.1428571428571  L 9.32682291666667 11.7299107142857  C 9.38454861111111 11.5811011904762  9.42578125 11.4099702380952  9.45052083333333 11.2165178571429  C 9.46701388888889 11.0974702380952  9.47526041666667 11.0081845238095  9.47526041666667 10.9486607142857  L 9.52473958333333 10.9486607142857  L 9.56184895833333 11.2165178571429  C 9.57009548611111 11.2388392857143  9.58452690972223 11.313244047619  9.60514322916667 11.4397321428571  C 9.62575954861111 11.5662202380952  9.6484375 11.6629464285714  9.67317708333333 11.7299107142857  L 11.2565104166667 17.1428571428571  L 13.2233072916667 17.1428571428571  L 15.251953125 9.765625  L 16.1178385416667 9.765625  L 16.1178385416667 8.57142857142857  L 12.4069010416667 8.57142857142857  L 12.4069010416667 9.765625  L 13.5201822916667 9.765625  L 12.2955729166667 14.6540178571429  C 12.2543402777778 14.8028273809524  12.2254774305556 14.9739583333333  12.208984375 15.1674107142857  L 12.1842447916667 15.4017857142857  L 12.134765625 15.4017857142857  C 12.134765625 15.3794642857143  12.1327039930556 15.3552827380952  12.1285807291667 15.3292410714286  C 12.1244574652778 15.3031994047619  12.1182725694444 15.2734375  12.1100260416667 15.2399553571429  C 12.1017795138889 15.2064732142857  12.09765625 15.1822916666667  12.09765625 15.1674107142857  C 12.0894097222222 15.1302083333333  12.0729166666667 15.0520833333333  12.0481770833333 14.9330357142857  C 12.0234375 14.8139880952381  12.0028211805556 14.7209821428571  11.986328125 14.6540178571429  L 10.205078125 8.57142857142857  L 8.794921875 8.57142857142857  L 7.013671875 14.6540178571429  C 6.99717881944444 14.7209821428571  6.97862413194444 14.8121279761905  6.9580078125 14.9274553571429  C 6.93739149305556 15.0427827380952  6.92296006944444 15.1227678571429  6.91471354166667 15.1674107142857  L 6.865234375 15.4017857142857  L 6.81575520833333 15.4017857142857  L 6.791015625 15.1674107142857  C 6.77452256944444 14.9739583333333  6.74565972222222 14.8028273809524  6.70442708333333 14.6540178571429  L 5.47981770833333 9.765625  L 6.59309895833333 9.765625  L 6.59309895833333 8.57142857142857  Z " fill-rule="nonzero" fill="#367fa9" stroke="none" transform="matrix(1 0 0 1 450 1596 )" />
  </g>
</svg>